<?xml version="1.0" encoding="UTF-8"?>
<!-- Generator: visioncortex VTracer 0.6.3 -->
<svg version="1.1" xmlns="http://www.w3.org/2000/svg" width="1280" height="1280">
<path d="M0 0 C0.99 0 1.98 0 3 0 C4.55 -0 6.1 -0 7.65 -0 C8.62 -0 9.58 -0 10.58 -0 C11.64 -0 12.7 -0 13.8 -0 C16.15 -0 18.51 -0 20.87 -0 C22.77 -0.01 22.77 -0.01 24.71 -0.01 C81.24 -0.02 137.77 -0.03 194.29 -0.04 C195.23 -0.04 196.18 -0.04 197.15 -0.04 C217.6 -0.05 238.05 -0.05 258.5 -0.05 C268.52 -0.05 278.55 -0.05 288.57 -0.05 C289.57 -0.06 290.57 -0.06 291.59 -0.06 C323.97 -0.06 356.34 -0.07 388.71 -0.08 C421.97 -0.09 455.23 -0.09 488.49 -0.09 C493.18 -0.09 497.87 -0.09 502.56 -0.09 C503.95 -0.09 503.95 -0.09 505.36 -0.1 C520.26 -0.1 535.15 -0.1 550.05 -0.11 C565 -0.11 579.95 -0.11 594.91 -0.11 C603.8 -0.11 612.7 -0.11 621.59 -0.12 C627.52 -0.12 633.46 -0.12 639.39 -0.12 C642.77 -0.12 646.16 -0.12 649.55 -0.12 C653.18 -0.13 656.82 -0.13 660.45 -0.12 C661.52 -0.13 662.59 -0.13 663.69 -0.13 C665.13 -0.13 665.13 -0.13 666.6 -0.12 C667.43 -0.12 668.26 -0.12 669.12 -0.12 C671 0 671 0 672 1 C673.56 1.16 675.13 1.25 676.69 1.32 C677.64 1.36 678.58 1.4 679.55 1.44 C681.04 1.5 681.04 1.5 682.56 1.56 C684.06 1.63 684.06 1.63 685.58 1.69 C688.06 1.8 690.53 1.9 693 2 C693 2.33 693 2.66 693 3 C693.68 3.12 694.36 3.24 695.05 3.37 C698.04 3.9 701.02 4.45 704 5 C704.92 5.17 705.84 5.34 706.78 5.51 C711.09 6.32 714.96 7.27 719 9 C720.66 9.37 722.32 9.71 724 10 C724 10.66 724 11.32 724 12 C724.93 12.08 725.86 12.16 726.81 12.25 C732.13 12.98 737.03 15.07 742 17 C742 17.66 742 18.32 742 19 C743.01 19.09 744.03 19.19 745.07 19.29 C749.26 20.05 752.11 21.36 755.81 23.44 C756.93 24.05 758.05 24.67 759.21 25.31 C762 27 762 27 764 29 C764.8 29.31 765.61 29.62 766.44 29.94 C769.04 31.02 770.09 32.01 772 34 C774.26 35.25 776.58 36.26 778.94 37.31 C782.28 39.15 784.38 41.25 787 44 C790.79 47.26 794.88 49.89 799.11 52.54 C801 54 801 54 802 57 C802.99 57.33 803.98 57.66 805 58 C805 58.66 805 59.32 805 60 C805.84 60.34 805.84 60.34 806.69 60.69 C814.6 65.18 821.99 74.76 826.44 82.5 C827.85 84.99 827.85 84.99 829.69 86.62 C831 88 831 88 831 91 C831.66 91.33 832.32 91.66 833 92 C836.4 96.05 839.38 100.41 842 105 C842.66 105.99 843.32 106.98 844 108 C844 108.99 844 109.98 844 111 C844.66 111.33 845.32 111.66 846 112 C849.65 118.15 852.38 123.87 853 131 C853.66 131.66 854.32 132.32 855 133 C855 133.99 855 134.98 855 136 C855.66 135.67 856.32 135.34 857 135 C857.1 136.11 857.21 137.23 857.31 138.38 C857.54 139.57 857.77 140.77 858 142 C858.99 142.66 859.98 143.32 861 144 C860.67 145.32 860.34 146.64 860 148 C860.66 148.33 861.32 148.66 862 149 C861.94 149.93 861.88 150.86 861.81 151.81 C861.63 154.98 861.63 154.98 863.5 156.38 C865.42 158.45 865.2 159.41 865.19 162.19 C865.13 163.45 865.06 164.7 865 166 C865.66 166.33 866.32 166.66 867 167 C867.34 168.89 867.34 168.89 867.5 171.25 C867.68 173.95 867.96 175.9 869.03 178.41 C870.2 181.53 870.16 183.93 870.06 187.25 C869.97 192.62 870.28 197.68 871 203 C871.33 203 871.66 203 872 203 C872 351.83 872 500.66 872 654 C871.67 654 871.34 654 871 654 C870.98 654.63 870.96 655.25 870.94 655.9 C870.84 658.72 870.74 661.55 870.62 664.38 C870.59 665.36 870.56 666.34 870.53 667.36 C870.49 668.3 870.45 669.24 870.41 670.21 C870.37 671.51 870.37 671.51 870.32 672.85 C870 675 870 675 868 677 C867.57 679.3 867.57 679.3 867.44 681.88 C867.21 685.05 866.81 687.93 866 691 C865.52 693.62 865.05 696.23 864.6 698.86 C864.4 699.56 864.2 700.27 864 701 C863.34 701.33 862.68 701.66 862 702 C862.06 702.76 862.12 703.53 862.19 704.31 C862 707 862 707 860.56 708.81 C859 710 859 710 858 710 C857.67 713.96 857.34 717.92 857 722 C856.34 721.67 855.68 721.34 855 721 C854.96 722.09 854.92 723.19 854.88 724.31 C854.15 730.26 850.95 734.91 848 740 C846.63 742.65 845.31 745.32 844 748 C843.34 748 842.68 748 842 748 C842 748.99 842 749.98 842 751 C841.01 751 840.02 751 839 751 C839.99 751.5 839.99 751.5 841 752 C839.66 755.75 838.01 758.62 835.56 761.75 C834.97 762.53 834.37 763.31 833.75 764.11 C832 766 832 766 829 767 C827.95 769.63 827.95 769.63 828 771 C826.87 773.5 825.96 775.04 824 777 C823.01 777 822.02 777 821 777 C820.93 777.88 820.86 778.77 820.78 779.68 C819.83 783.73 818.37 785.26 815.45 788.18 C814.52 789.11 813.6 790.04 812.64 790.99 C812.16 791.46 811.67 791.94 811.17 792.42 C809.69 793.88 808.23 795.35 806.77 796.83 C799.52 804 799.52 804 795 804 C793.21 806.43 793.21 806.43 792 809 C791.01 808.67 790.02 808.34 789 808 C788.32 808.74 788.32 808.74 787.62 809.5 C786 811 786 811 784 811 C783.9 811.6 783.79 812.2 783.69 812.81 C782.88 815.39 782.12 816.34 780 818 C779.15 818.33 778.31 818.66 777.44 819 C774.69 819.86 774.69 819.86 773 823 C772.01 822.67 771.02 822.34 770 822 C770 822.99 770 823.98 770 825 C769.44 824.79 768.89 824.59 768.31 824.38 C765.34 823.89 763.68 824.73 761 826 C761.33 827.32 761.66 828.64 762 830 C759.25 830.92 757.64 831.11 754.81 831.06 C753.55 831.04 752.3 831.02 751 831 C750.67 832.32 750.34 833.64 750 835 C746.68 835.86 744.51 836 741 836 C741 836.66 741 837.32 741 838 C738.59 839.2 737.05 839.1 734.38 839.06 C733.56 839.05 732.74 839.04 731.9 839.04 C730.96 839.02 730.96 839.02 730 839 C730.33 839.99 730.66 840.98 731 842 C730.34 842 729.68 842 729 842 C729 842.66 729 843.32 729 844 C724.38 844.33 719.76 844.66 715 845 C716.32 845.99 717.64 846.98 719 848 C716.67 848 714.33 848 712 848 C712 848.33 712 848.66 712 849 C710.95 848.94 709.9 848.88 708.81 848.81 C705.07 848.68 705.07 848.68 702.69 850.5 C699.13 852.48 696.38 852.17 692.38 852.04 C689.8 852 687.49 852.33 685 853 C685 853.33 685 853.66 685 854 C684.28 853.93 683.56 853.85 682.82 853.77 C626.14 847.91 569.41 844.04 512.47 841.93 C509.2 841.81 505.93 841.69 502.66 841.56 C400.82 837.75 307.37 836.59 226.88 910.26 C211.4 924.73 197.25 940.38 183.44 956.44 C182.92 957.04 182.39 957.65 181.86 958.27 C162.74 980.41 144.19 1003.01 127.23 1026.85 C126.1 1028.43 126.1 1028.43 124.96 1030.04 C121.48 1034.96 118.05 1039.89 114.69 1044.88 C114.08 1045.76 113.48 1046.64 112.86 1047.54 C111.75 1049.16 110.66 1050.79 109.59 1052.43 C106.97 1056.22 105.26 1058.3 100.68 1059.37 C99.47 1059.58 98.25 1059.78 97 1060 C96.5 1061.02 96.5 1061.02 96 1062.06 C95.67 1062.7 95.34 1063.34 95 1064 C91.06 1064.62 91.06 1064.62 88.97 1064.73 C86.68 1064.9 86.68 1064.9 84 1067 C81.31 1067.12 81.31 1067.12 79 1067 C79 1067.66 79 1068.32 79 1069 C74.05 1069 69.1 1069 64 1069 C64 1068.34 64 1067.68 64 1067 C62.21 1067.06 62.21 1067.06 60.38 1067.12 C56.56 1067.12 53.52 1066.59 50 1065 C49.01 1063.51 49.01 1063.51 48 1062 C47.26 1062.02 46.51 1062.04 45.75 1062.06 C41.86 1061.97 39.99 1060.39 37 1058 C36.3 1056.68 35.63 1055.35 35 1054 C32.97 1052.73 32.97 1052.73 31 1052 C31 1051.01 31 1050.02 31 1049 C30.4 1048.77 29.8 1048.55 29.19 1048.31 C26.39 1046.63 25.42 1044.91 24 1042 C24 1041.01 24 1040.02 24 1039 C23.34 1039 22.68 1039 22 1039 C20.68 1035.98 19.71 1033.01 18.94 1029.81 C18.2 1026.22 18.2 1026.22 17 1024 C16.89 1021.81 16.85 1019.61 16.84 1017.42 C16.84 1016.74 16.83 1016.05 16.83 1015.35 C16.81 1013.05 16.8 1010.74 16.79 1008.44 C16.79 1006.8 16.78 1005.15 16.76 1003.51 C16.74 999.03 16.72 994.55 16.7 990.08 C16.67 985.4 16.65 980.72 16.62 976.05 C16.57 967.19 16.53 958.33 16.48 949.48 C16.43 939.39 16.38 929.31 16.32 919.23 C16.21 898.49 16.1 877.74 16 857 C10.39 856.67 4.78 856.34 -1 856 C-1 855.67 -1 855.34 -1 855 C-1.61 854.94 -2.23 854.88 -2.86 854.82 C-3.67 854.73 -4.48 854.65 -5.31 854.56 C-6.11 854.48 -6.91 854.4 -7.74 854.32 C-10 854 -10 854 -13 853 C-14.73 852.93 -16.46 852.92 -18.19 852.94 C-19.54 852.95 -19.54 852.95 -20.92 852.96 C-21.61 852.98 -22.29 852.99 -23 853 C-23 852.67 -23 852.34 -23 852 C-21.35 851.67 -19.7 851.34 -18 851 C-18 850.67 -18 850.34 -18 850 C-23.94 849.67 -29.88 849.34 -36 849 C-36.33 848.34 -36.66 847.68 -37 847 C-37.33 847.33 -37.66 847.66 -38 848 C-40.31 848.31 -40.31 848.31 -43 848 C-44.38 846.71 -45.71 845.37 -47 844 C-50.27 842.41 -53.43 841.64 -57 841 C-60.16 840.31 -63.01 839.23 -66 838 C-66.99 837.67 -67.98 837.34 -69 837 C-69.68 836.23 -69.68 836.23 -70.38 835.44 C-71.98 833.73 -71.98 833.73 -74.69 833.81 C-75.83 833.91 -75.83 833.91 -77 834 C-77.33 833.34 -77.66 832.68 -78 832 C-79.66 831.63 -81.33 831.29 -83 831 C-83.33 830.67 -83.66 830.34 -84 830 C-84.6 829.71 -85.2 829.42 -85.81 829.12 C-88 828 -88 828 -89.94 826.5 C-91.98 824.86 -91.98 824.86 -94.69 824.06 C-97 823 -97 823 -97.81 820.88 C-97.87 820.26 -97.94 819.64 -98 819 C-98.58 819.25 -99.16 819.5 -99.75 819.75 C-100.49 819.83 -101.24 819.91 -102 820 C-104.06 818.12 -104.06 818.12 -106 816 C-106.99 815.67 -107.98 815.34 -109 815 C-109 814.01 -109 813.02 -109 812 C-109.7 811.94 -110.4 811.88 -111.12 811.81 C-115.09 810.69 -117.02 808.84 -120 806 C-120 805.34 -120 804.68 -120 804 C-120.8 803.69 -121.6 803.37 -122.42 803.05 C-127.52 800.49 -131.28 796.19 -135.25 792.19 C-136.06 791.39 -136.88 790.6 -137.72 789.78 C-138.5 789 -139.28 788.22 -140.08 787.42 C-140.78 786.71 -141.49 786.01 -142.22 785.29 C-144.27 782.65 -145 780.16 -146 777 C-147.95 776.38 -147.95 776.38 -150 776 C-151.53 773.93 -151.53 773.93 -152.94 771.31 C-154.72 768.14 -156.45 765.28 -158.88 762.56 C-161 760 -161 760 -161 757 C-161.66 757 -162.32 757 -163 757 C-164.49 754.09 -165.91 751.24 -167.06 748.19 C-167.79 745.83 -167.79 745.83 -170 745 C-170.98 743.14 -171.95 741.28 -172.85 739.39 C-173.65 737.72 -174.48 736.07 -175.34 734.42 C-176 733.13 -176 733.13 -176.69 731.81 C-177.1 731.01 -177.52 730.22 -177.95 729.39 C-179.03 726.93 -179.57 724.65 -180 722 C-180.66 722 -181.32 722 -182 722 C-182.42 720.18 -182.85 718.35 -183.27 716.53 C-183.89 714.37 -184.63 712.35 -185.45 710.26 C-187.06 706.04 -188.1 701.78 -189.06 697.38 C-190.15 692.47 -191.36 687.76 -193 683 C-194.19 677.38 -194.19 677.38 -193 675 C-193.66 675 -194.32 675 -195 675 C-195.33 668.4 -195.66 661.8 -196 655 C-196.33 655 -196.66 655 -197 655 C-197.02 597.31 -197.04 539.62 -197.05 481.92 C-197.05 475.12 -197.05 468.32 -197.05 461.51 C-197.06 460.84 -197.06 460.16 -197.06 459.46 C-197.06 437.5 -197.07 415.53 -197.08 393.57 C-197.09 370.37 -197.09 347.17 -197.09 323.97 C-197.1 310.06 -197.1 296.15 -197.11 282.25 C-197.11 272.72 -197.11 263.2 -197.11 253.68 C-197.11 248.18 -197.11 242.67 -197.12 237.17 C-197.12 232.14 -197.12 227.11 -197.12 222.08 C-197.12 220.26 -197.12 218.43 -197.12 216.6 C-197.13 214.13 -197.13 211.67 -197.12 209.2 C-197.13 208.47 -197.13 207.75 -197.13 207 C-197.11 202.11 -197.11 202.11 -196 201 C-196.33 200.34 -196.66 199.68 -197 199 C-196.34 199 -195.68 199 -195 199 C-195.01 197.72 -195.02 196.45 -195.04 195.13 C-195.04 193.46 -195.05 191.79 -195.06 190.12 C-195.07 189.28 -195.08 188.44 -195.09 187.57 C-195.09 186.77 -195.09 185.96 -195.1 185.13 C-195.1 184.39 -195.11 183.65 -195.11 182.88 C-195 181 -195 181 -194 179 C-193.64 176.86 -193.31 174.71 -193 172.56 C-192.52 169.22 -192.07 166.21 -191 163 C-188.29 155.13 -188.29 155.13 -187 147 C-186.34 146.67 -185.68 146.34 -185 146 C-184.53 144.1 -184.53 144.1 -184.38 141.94 C-184.25 140.64 -184.13 139.34 -184 138 C-183.34 138 -182.68 138 -182 138 C-182 136.35 -182 134.7 -182 133 C-181.34 133 -180.68 133 -180 133 C-179.67 131.35 -179.34 129.7 -179 128 C-178.34 128 -177.68 128 -177 128 C-177 125.36 -177 122.72 -177 120 C-176.01 120 -175.02 120 -174 120 C-174 118.35 -174 116.7 -174 115 C-173.34 115 -172.68 115 -172 115 C-171.5 113.51 -171.5 113.51 -171 112 C-170.53 111.22 -170.05 110.43 -169.56 109.62 C-167.94 107.09 -167.94 107.09 -167.06 104.44 C-165.84 101.62 -164.27 100.04 -162 98 C-162.99 97.5 -162.99 97.5 -164 97 C-163.07 96.3 -162.14 95.6 -161.19 94.88 C-158.08 92.31 -156.68 89.68 -155 86 C-154 85 -153 84 -152 83 C-151.84 82.3 -151.67 81.6 -151.5 80.88 C-151.34 80.26 -151.17 79.64 -151 79 C-150.01 78.67 -149.02 78.34 -148 78 C-147.33 76.67 -146.66 75.33 -146 74 C-144.55 72.57 -143.04 71.2 -141.5 69.88 C-134.64 63.85 -128.1 57.58 -122.25 50.56 C-119.5 47.33 -116.93 45.7 -113 44 C-112.46 43.46 -111.93 42.93 -111.38 42.38 C-109.68 40.68 -108.29 40.54 -106 40 C-105.5 39.01 -105.5 39.01 -105 38 C-104.34 38 -103.68 38 -103 38 C-103 37.34 -103 36.68 -103 36 C-102.34 36 -101.68 36 -101 36 C-100.67 35.01 -100.34 34.02 -100 33 C-98.35 33 -96.7 33 -95 33 C-95 32.34 -95 31.68 -95 31 C-93.35 30.67 -91.7 30.34 -90 30 C-90 29.34 -90 28.68 -90 28 C-88 26.38 -88 26.38 -86 25 C-85.67 25.33 -85.34 25.66 -85 26 C-84.01 25.67 -83.02 25.34 -82 25 C-82 24.34 -82 23.68 -82 23 C-81.07 22.81 -81.07 22.81 -80.12 22.62 C-77.81 22.13 -77.81 22.13 -76 20 C-75.67 20.33 -75.34 20.66 -75 21 C-75 20.67 -75 20.34 -75 20 C-73.02 20 -71.04 20 -69 20 C-69 19.34 -69 18.68 -69 18 C-67.35 17.67 -65.7 17.34 -64 17 C-64 16.34 -64 15.68 -64 15 C-62.35 15 -60.7 15 -59 15 C-59 14.34 -59 13.68 -59 13 C-56.36 12.67 -53.72 12.34 -51 12 C-51 11.34 -51 10.68 -51 10 C-50.29 9.87 -49.58 9.73 -48.85 9.6 C-47.47 9.33 -47.47 9.33 -46.06 9.06 C-45.15 8.89 -44.23 8.71 -43.29 8.54 C-41.05 8.22 -41.05 8.22 -40 7 C-38.48 6.93 -36.96 6.92 -35.44 6.94 C-34.61 6.95 -33.78 6.96 -32.93 6.96 C-32.3 6.98 -31.66 6.99 -31 7 C-31 6.34 -31 5.68 -31 5 C-29.06 4.64 -27.13 4.28 -25.19 3.94 C-24.11 3.74 -23.03 3.54 -21.92 3.34 C-19 3 -19 3 -16 4 C-16 3.34 -16 2.68 -16 2 C-10.72 2 -5.44 2 0 2 C0 1.34 0 0.68 0 0 Z M836 98 C837 100 837 100 837 100 Z M839 103 C840 105 840 105 840 105 Z M846 116 C847 118 847 118 847 118 Z M-176 121 C-175 123 -175 123 -175 123 Z M849 121 C850 125 850 125 850 125 Z M862 162 C863 164 863 164 863 164 Z M867 177 C867 179.31 867 181.62 867 184 C867.33 184 867.66 184 868 184 C868 181.69 868 179.38 868 177 C867.67 177 867.34 177 867 177 Z M868 185 C869 189 869 189 869 189 Z M870 214 C871 216 871 216 871 216 Z M870 220 C871 222 871 222 871 222 Z M870 229 C871 231 871 231 871 231 Z M870 253 C871 255 871 255 871 255 Z M870 263 C871 265 871 265 871 265 Z M870 315 C870 316.65 870 318.3 870 320 C870.33 320 870.66 320 871 320 C871 318.35 871 316.7 871 315 C870.67 315 870.34 315 870 315 Z M870 333 C870 334.65 870 336.3 870 338 C870.33 338 870.66 338 871 338 C871 336.35 871 334.7 871 333 C870.67 333 870.34 333 870 333 Z M870 344 C870 345.65 870 347.3 870 349 C870.33 349 870.66 349 871 349 C871 347.35 871 345.7 871 344 C870.67 344 870.34 344 870 344 Z M870 362 C870 363.65 870 365.3 870 367 C870.33 367 870.66 367 871 367 C871 365.35 871 363.7 871 362 C870.67 362 870.34 362 870 362 Z M172 414 C170.89 421.76 171.21 428.37 173 436 C173.99 436.33 174.98 436.66 176 437 C176.06 433.92 176.09 430.83 176.12 427.75 C176.14 426.88 176.16 426 176.18 425.11 C176.18 424.26 176.19 423.42 176.2 422.55 C176.21 421.77 176.22 421 176.23 420.2 C175.97 417.74 175.22 416.13 174 414 C173.34 414 172.68 414 172 414 Z M499 416 C498.34 418.31 497.68 420.62 497 423 C497.99 423.5 497.99 423.5 499 424 C499.33 421.36 499.66 418.72 500 416 C499.67 416 499.34 416 499 416 Z M502 418 C499.17 420.83 499.58 423.71 499.44 427.5 C499.12 434.76 499.12 434.76 498 437 C498.45 437.39 498.91 437.78 499.38 438.19 C501.28 440.31 502.06 442.33 503 445 C503.33 445 503.66 445 504 445 C505.67 437.09 505.81 427.92 504 420 C503.34 419.34 502.68 418.68 502 418 Z M498 425 C498 427.64 498 430.28 498 433 C498.33 433 498.66 433 499 433 C499 430.36 499 427.72 499 425 C498.67 425 498.34 425 498 425 Z M870 457 C871 459 871 459 871 459 Z M870 507 C871 509 871 509 871 509 Z M868 662 C868 665.3 868 668.6 868 672 C868.33 672 868.66 672 869 672 C869 668.7 869 665.4 869 662 C868.67 662 868.34 662 868 662 Z M864 692 C865 694 865 694 865 694 Z M852 725 C853 729 853 729 853 729 Z M849 731 C849.33 731.99 849.66 732.98 850 734 C850.33 733.01 850.66 732.02 851 731 C850.34 731 849.68 731 849 731 Z M847 736 C848 738 848 738 848 738 Z M844 741 C845 744 845 744 845 744 Z M838 753 C839 755 839 755 839 755 Z M835 755 C834.67 755.99 834.34 756.98 834 758 C834.99 757.67 835.98 757.34 837 757 C836.34 756.34 835.68 755.68 835 755 Z M834 759 C834 762 834 762 834 762 Z M818 780 C819 782 819 782 819 782 Z M182 976 C182.33 976.66 182.66 977.32 183 978 C183.33 977.34 183.66 976.68 184 976 C183.34 976 182.68 976 182 976 Z M107 1051 C107.33 1051.66 107.66 1052.32 108 1053 C108.33 1052.34 108.66 1051.68 109 1051 C108.34 1051 107.68 1051 107 1051 Z M52 1064 C52 1064.33 52 1064.66 52 1065 C54.31 1065 56.62 1065 59 1065 C59 1064.67 59 1064.34 59 1064 C56.69 1064 54.38 1064 52 1064 Z M64 1066 C68 1067 68 1067 68 1067 Z M72 1066 C72 1066.33 72 1066.66 72 1067 C73.65 1067 75.3 1067 77 1067 C77 1066.67 77 1066.34 77 1066 C75.35 1066 73.7 1066 72 1066 Z " fill="#1F73DF" transform="translate(302,105)"/>
<path d="M0 0 C17.87 13.64 30.97 32.91 34.15 55.5 C35.29 68.35 34.54 80.3 30.15 92.5 C29.57 94.13 29.57 94.13 28.98 95.8 C26.8 101.47 24.29 106.2 20.39 110.88 C18.94 112.59 18.94 112.59 18.15 115.5 C17.53 115.95 16.91 116.4 16.28 116.87 C13.98 118.42 13.98 118.42 12.59 121.12 C11.15 123.5 11.15 123.5 8.15 124.5 C8.15 125.16 8.15 125.82 8.15 126.5 C6.51 127.54 4.84 128.54 3.15 129.5 C2.43 130.05 1.71 130.61 0.96 131.18 C-0.85 132.5 -0.85 132.5 -2.85 132.5 C-2.85 133.16 -2.85 133.82 -2.85 134.5 C-3.84 134.5 -4.83 134.5 -5.85 134.5 C-5.85 135.16 -5.85 135.82 -5.85 136.5 C-8.12 137.44 -10.39 138.38 -12.66 139.31 C-13.28 139.57 -13.91 139.83 -14.55 140.1 C-24.58 144.18 -33.81 146.04 -44.66 145.93 C-45.81 145.92 -46.96 145.92 -48.14 145.91 C-56.72 145.73 -63.88 144.86 -71.85 141.5 C-72.52 141.22 -73.19 140.94 -73.89 140.65 C-88.46 134.52 -99.2 127.23 -108.85 114.5 C-109.49 113.73 -110.13 112.97 -110.79 112.18 C-115.33 106.71 -118.36 101.16 -120.85 94.5 C-121.44 92.92 -121.44 92.92 -122.04 91.3 C-128.4 71.42 -126.29 48.02 -116.85 29.5 C-106.85 11.58 -92.87 -0.49 -73.85 -8.5 C-72.86 -8.5 -71.87 -8.5 -70.85 -8.5 C-70.52 -9.49 -70.19 -10.48 -69.85 -11.5 C-69.85 -10.84 -69.85 -10.18 -69.85 -9.5 C-68.89 -9.79 -67.93 -10.08 -66.95 -10.38 C-43.84 -16.97 -19.96 -13.87 0 0 Z " fill="#E7EAEB" transform="translate(684.84765625,466.50390625)"/>
<path d="M0 0 C2.05 1.91 3.76 3.83 5.48 6.05 C7.59 8.76 10.04 11.07 12.52 13.46 C14.96 16 16 17.43 16 21 C16.66 21 17.32 21 18 21 C18 21.99 18 22.98 18 24 C18.66 24 19.32 24 20 24 C24.5 31.92 27.34 40.8 27 50 C26.34 50 25.68 50 25 50 C24.87 57.4 25.2 64.64 26 72 C26.66 72 27.32 72 28 72 C28.15 70.11 28.15 70.11 28.31 68.19 C28.6 64.71 29.33 63.27 32 61 C31.12 67.72 30.19 74.18 27.85 80.56 C26.77 83.67 25.93 86.82 25.06 90 C23.14 96.81 20.94 103.1 17 109 C16.34 109 15.68 109 15 109 C14.67 110.32 14.34 111.64 14 113 C13.34 113 12.68 113 12 113 C11.94 113.56 11.88 114.11 11.81 114.69 C10.66 117.97 8.55 119.76 6 122 C5.34 122.6 4.69 123.2 4.01 123.82 C-3.28 130.09 -11.29 134.11 -20 138 C-21.13 138.53 -22.25 139.06 -23.41 139.61 C-41.03 146.8 -62.56 144.73 -79.96 137.86 C-92.14 132.71 -92.14 132.71 -94 129 C-95.65 128.09 -97.3 127.18 -98.95 126.28 C-102.64 123.98 -106.01 121.15 -109 118 C-109 117.34 -109 116.68 -109 116 C-109.66 116 -110.32 116 -111 116 C-121.13 104.78 -125.92 91.67 -129 77 C-129.15 76.31 -129.29 75.61 -129.44 74.9 C-132.93 57.16 -128.03 38.55 -119.25 22.88 C-116.25 19.05 -113.16 15.3 -110.02 11.59 C-107.98 9.19 -107.98 9.19 -107.04 6.85 C-105.56 4.21 -103.64 3.44 -101 2 C-99.36 0.91 -97.72 -0.17 -96.09 -1.26 C-89.96 -5.32 -84.03 -8.68 -77 -11 C-77.66 -11.33 -78.32 -11.66 -79 -12 C-74.9 -15.28 -71.61 -15.25 -66.6 -15.01 C-63.95 -14.93 -63.95 -14.93 -61.21 -15.47 C-39.47 -19.05 -18.01 -12.06 0 0 Z " fill="#E6E9EA" transform="translate(449,469)"/>
<path d="M0 0 C4.64 3.67 8.63 7.98 12.65 12.31 C13.33 12.95 14.01 13.59 14.71 14.25 C26.53 26.76 33.68 46.37 34.03 63.49 C33.19 83.8 27.37 100.45 14.65 116.31 C13.76 117.51 13.76 117.51 12.84 118.74 C10.39 121.61 7.82 123.65 4.78 125.87 C3.77 126.61 2.76 127.36 1.72 128.12 C-6.97 134.31 -6.97 134.31 -9.35 134.31 C-9.35 134.97 -9.35 135.63 -9.35 136.31 C-11.28 137.08 -13.22 137.85 -15.16 138.62 C-16.78 139.26 -16.78 139.26 -18.43 139.92 C-27.48 143.23 -35.82 144.86 -45.47 144.81 C-46.56 144.8 -47.65 144.8 -48.77 144.79 C-63.11 144.48 -74.82 140.21 -87.35 133.31 C-88.68 132.63 -90.01 131.96 -91.35 131.31 C-91.35 130.65 -91.35 129.99 -91.35 129.31 C-91.88 129.22 -92.42 129.14 -92.97 129.06 C-98.65 127.26 -101.39 124.23 -104.35 119.31 C-105.27 118.76 -106.2 118.21 -107.15 117.64 C-111.12 114.74 -112.79 111.78 -115.04 107.49 C-115.41 106.81 -115.79 106.12 -116.18 105.41 C-121.35 95.88 -124.95 86.36 -124.35 75.31 C-122.35 77.31 -122.35 77.31 -121.35 80.31 C-119.2 72.86 -120.37 64.87 -121.35 57.31 C-122.01 57.31 -122.67 57.31 -123.35 57.31 C-123.68 62.59 -124.01 67.87 -124.35 73.31 C-124.68 73.31 -125.01 73.31 -125.35 73.31 C-125.35 67.37 -125.35 61.43 -125.35 55.31 C-126.01 54.98 -126.67 54.65 -127.35 54.31 C-126.79 43.42 -122.39 33.84 -117.35 24.31 C-116.69 24.31 -116.03 24.31 -115.35 24.31 C-115.02 22.66 -114.69 21.01 -114.35 19.31 C-112.86 18.81 -112.86 18.81 -111.35 18.31 C-111.35 17.32 -111.35 16.33 -111.35 15.31 C-109.91 13.76 -109.91 13.76 -107.91 12.12 C-104.85 9.57 -101.89 6.96 -98.97 4.24 C-71.72 -19.81 -29.11 -21.33 0 0 Z " fill="#E6E9EA" transform="translate(926.34814453125,467.69384765625)"/>
<path d="M0 0 C2.46 2.46 2.24 3.83 2.27 7.19 C2.27 7.92 2.27 8.64 2.26 9.4 C2.27 10.17 2.27 10.95 2.28 11.75 C2.29 14.37 2.29 17 2.29 19.62 C2.29 21.51 2.3 23.4 2.3 25.29 C2.32 30.51 2.33 35.72 2.33 40.94 C2.34 46.55 2.35 52.17 2.37 57.79 C2.4 68.8 2.42 79.81 2.43 90.82 C2.45 103.63 2.48 116.43 2.51 129.24 C2.56 152.78 2.6 176.31 2.64 199.85 C2.67 221.35 2.71 242.85 2.76 264.36 C2.76 265.74 2.76 267.12 2.77 268.5 C2.77 269.18 2.77 269.86 2.77 270.57 C2.78 274 2.79 277.44 2.79 280.87 C2.8 281.55 2.8 282.23 2.8 282.93 C2.85 304.72 2.89 326.52 2.93 348.32 C2.94 357.26 2.96 366.2 2.98 375.14 C3 386.02 3.02 396.91 3.04 407.79 C3.05 413.35 3.06 418.91 3.07 424.47 C3.08 429.55 3.09 434.63 3.09 439.71 C3.09 441.56 3.1 443.4 3.1 445.25 C3.11 447.74 3.11 450.24 3.11 452.73 C3.12 453.46 3.12 454.19 3.12 454.95 C3.11 459.89 3.11 459.89 2 461 C1.77 463.18 1.59 465.37 1.44 467.56 C1.35 468.76 1.27 469.96 1.18 471.19 C1.12 472.12 1.06 473.05 1 474 C0.67 474 0.34 474 0 474 C-0.33 468.72 -0.66 463.44 -1 458 C-1.33 458 -1.66 458 -2 458 C-2.02 400.31 -2.04 342.62 -2.05 284.92 C-2.05 278.12 -2.05 271.32 -2.05 264.51 C-2.06 263.84 -2.06 263.16 -2.06 262.46 C-2.06 240.5 -2.07 218.53 -2.08 196.57 C-2.09 173.37 -2.09 150.17 -2.09 126.97 C-2.1 113.06 -2.1 99.15 -2.11 85.25 C-2.11 75.72 -2.11 66.2 -2.11 56.68 C-2.11 51.18 -2.11 45.67 -2.12 40.17 C-2.12 35.14 -2.12 30.11 -2.12 25.08 C-2.12 23.26 -2.12 21.43 -2.12 19.6 C-2.13 17.13 -2.13 14.67 -2.12 12.2 C-2.13 11.47 -2.13 10.75 -2.13 10 C-2.11 5.11 -2.11 5.11 -1 4 C-1.33 3.34 -1.66 2.68 -2 2 C-1.34 2 -0.68 2 0 2 C0 1.34 0 0.68 0 0 Z " fill="#708DC0" transform="translate(107,302)"/>
<path d="M0 0 C1.9 0.05 1.9 0.05 3.83 0.11 C5.74 0.15 5.74 0.15 7.69 0.19 C9.15 0.24 9.15 0.24 10.64 0.29 C10.64 0.62 10.64 0.95 10.64 1.29 C227.12 1.62 443.6 1.95 666.64 2.29 C666.64 2.62 666.64 2.95 666.64 3.29 C444.55 3.29 222.46 3.29 -6.36 3.29 C-3.36 0.29 -3.36 0.29 0 0 Z " fill="#2273DE" transform="translate(308.35546875,104.70703125)"/>
<path d="M0 0 C0 3 0 3 -1.29 4.66 C-1.89 5.27 -2.5 5.88 -3.13 6.51 C-4.18 7.56 -4.18 7.56 -5.25 8.64 C-6.03 9.42 -6.81 10.19 -7.61 10.98 C-8.43 11.81 -9.25 12.63 -10.09 13.48 C-12.37 15.77 -14.66 18.05 -16.95 20.33 C-19.41 22.78 -21.87 25.25 -24.33 27.71 C-29.15 32.54 -33.98 37.36 -38.81 42.18 C-44.43 47.79 -50.04 53.4 -55.65 59.02 C-65.67 69.03 -75.69 79.04 -85.71 89.05 C-95.45 98.76 -105.17 108.48 -114.9 118.21 C-125.47 128.8 -136.06 139.38 -146.64 149.95 C-147.77 151.08 -148.9 152.21 -150.03 153.33 C-150.58 153.89 -151.14 154.44 -151.71 155.01 C-155.63 158.93 -159.54 162.84 -163.46 166.76 C-168.23 171.53 -173 176.3 -177.78 181.07 C-180.22 183.5 -182.66 185.93 -185.09 188.37 C-187.72 191.01 -190.37 193.64 -193.01 196.27 C-193.78 197.05 -194.56 197.82 -195.35 198.62 C-196.41 199.67 -196.41 199.67 -197.49 200.75 C-198.1 201.35 -198.71 201.96 -199.34 202.59 C-201 204 -201 204 -204 205 C-204 204.34 -204 203.68 -204 203 C-202.77 201.79 -202.77 201.79 -200.92 200.29 C-193.99 194.4 -187.72 187.82 -181.31 181.38 C-179.99 180.05 -178.68 178.73 -177.36 177.41 C-174.45 174.49 -171.55 171.57 -168.65 168.66 C-166.44 166.43 -164.22 164.22 -162 162 C-161.17 161.17 -160.34 160.34 -159.48 159.48 C-106.32 106.32 -53.16 53.16 0 0 Z " fill="#E7EAEB" transform="translate(608,959)"/>
<path d="M0 0 C121.77 0 243.54 0 369 0 C369 0.33 369 0.66 369 1 C247.23 1 125.46 1 0 1 C0 0.67 0 0.34 0 0 Z " fill="#000002" transform="translate(610,960)"/>
<path d="M0 0 C0.5 1.49 0.5 1.49 1 3 C-15.67 19.67 -32.33 36.33 -49 53 C-49.66 52.01 -50.32 51.02 -51 50 C-50.31 49.42 -50.31 49.42 -49.61 48.82 C-43.74 43.78 -38.27 38.4 -32.81 32.91 C-31.86 31.96 -30.91 31 -29.95 30.05 C-27.47 27.56 -25 25.07 -22.52 22.59 C-19.98 20.04 -17.44 17.49 -14.89 14.94 C-9.93 9.97 -4.96 4.98 0 0 Z " fill="#597296" transform="translate(598,965)"/>
<path d="M0 0 C0.99 0.33 1.98 0.66 3 1 C2.34 1 1.68 1 1 1 C0.67 1.99 0.34 2.98 0 4 C-1.46 5.44 -1.46 5.44 -3.38 7 C-8.88 11.68 -13.92 16.81 -19 21.94 C-19.98 22.92 -20.95 23.9 -21.93 24.88 C-24.29 27.25 -26.64 29.62 -29 32 C-29.99 31.67 -30.98 31.34 -32 31 C-30.5 27.38 -28.46 25.41 -25.5 22.88 C-19.28 17.41 -12.98 11.83 -7.88 5.28 C-5.75 2.7 -4.14 2.02 -1 1 C-0.67 0.67 -0.34 0.34 0 0 Z " fill="#8299B6" transform="translate(186,152)"/>
<path d="M0 0 C2.64 1.98 5.28 3.96 8 6 C6.68 4.68 5.36 3.36 4 2 C4.33 1.34 4.66 0.68 5 0 C6.97 1.97 8.93 3.93 10.9 5.9 C12.53 7.53 14.17 9.14 15.81 10.75 C17.75 12.74 19.41 14.73 21 17 C20.34 17.33 19.68 17.66 19 18 C19.66 18.99 20.32 19.98 21 21 C17.67 19.55 15.46 17.71 12.89 15.16 C12.14 14.4 11.38 13.65 10.61 12.88 C9.83 12.09 9.05 11.31 8.25 10.5 C7.46 9.71 6.66 8.93 5.85 8.12 C5.1 7.37 4.35 6.62 3.58 5.84 C2.89 5.15 2.2 4.47 1.5 3.76 C0 2 0 2 0 0 Z " fill="#9CAEC7" transform="translate(158,886)"/>
<path d="M0 0 C3.57 0.58 5.25 1.87 7.75 4.44 C8.67 5.36 8.67 5.36 9.61 6.31 C11 8 11 8 11 10 C11.58 10.25 12.15 10.5 12.75 10.75 C15.33 12.18 17.06 13.78 19 16 C19 16.66 19 17.32 19 18 C19.89 18.38 19.89 18.38 20.8 18.77 C23.21 20.12 24.51 21.49 26.25 23.62 C26.77 24.26 27.29 24.89 27.83 25.54 C28.41 26.26 28.41 26.26 29 27 C28.67 27.66 28.34 28.32 28 29 C27.75 28.38 27.51 27.76 27.25 27.12 C25.74 24.56 24.64 24.28 22 23 C20.83 21.87 19.67 20.73 18.55 19.55 C16.64 17.64 14.61 15.89 12.56 14.12 C8.64 10.68 5.35 7 2 3 C1.34 2.67 0.68 2.34 0 2 C0 1.34 0 0.68 0 0 Z " fill="#0D1C48" transform="translate(1095,157)"/>
<path d="M0 0 C-1.38 4.39 -3.34 6.54 -6.81 9.5 C-7.71 10.28 -8.61 11.06 -9.54 11.87 C-10.35 12.57 -11.16 13.27 -12 14 C-13.69 15.65 -15.36 17.31 -17 19 C-18.27 20.27 -19.54 21.54 -20.81 22.81 C-21.42 23.42 -22.02 24.02 -22.64 24.64 C-23.09 25.09 -23.54 25.54 -24 26 C-24.99 25.67 -25.98 25.34 -27 25 C-23.48 21.43 -19.96 17.87 -16.43 14.32 C-15.23 13.11 -14.03 11.9 -12.83 10.68 C-11.11 8.94 -9.39 7.2 -7.66 5.47 C-7.13 4.92 -6.59 4.38 -6.04 3.81 C-2.23 0 -2.23 0 0 0 Z " fill="#5A7598" transform="translate(463,1102)"/>
<path d="M0 0 C0.66 0 1.32 0 2 0 C1.41 3.67 0.36 6.56 -1.31 9.88 C-4.51 16.67 -6.24 23.73 -8 31 C-8.66 30.67 -9.32 30.34 -10 30 C-9.45 19.12 -5.05 9.53 0 0 Z " fill="#9CB8DB" transform="translate(809,492)"/>
<path d="M0 0 C1.51 0.95 3 1.91 4.5 2.88 C5.75 3.68 5.75 3.68 7.03 4.49 C7.68 4.99 8.33 5.49 9 6 C9 6.66 9 7.32 9 8 C9.99 8.33 10.98 8.66 12 9 C12 9.66 12 10.32 12 11 C12.56 11.23 13.11 11.45 13.69 11.69 C16.65 13.37 18.71 15.54 21 18 C21.78 18.8 22.55 19.59 23.36 20.41 C24.19 21.29 25.02 22.16 25.88 23.06 C26.68 23.9 27.48 24.74 28.3 25.6 C30 28 30 28 29.76 30.31 C29.51 30.87 29.26 31.42 29 32 C28.46 31.11 27.93 30.23 27.38 29.31 C25.47 26.45 23.29 24.48 20.57 22.35 C18.25 20.36 16.39 18.04 14.44 15.7 C12.43 13.32 10.23 11.17 8 9 C6.7 7.64 6.7 7.64 5.38 6.25 C3.13 3.81 3.13 3.81 0 3 C0 2.01 0 1.02 0 0 Z " fill="#D2DDE9" transform="translate(1095,154)"/>
<path d="M0 0 C0.99 0.33 1.98 0.66 3 1 C3.89 3.82 4.58 6.5 5.19 9.38 C5.36 10.16 5.54 10.94 5.72 11.74 C6.94 17.24 7.3 20.68 5 26 C4.01 25.67 3.02 25.34 2 25 C2.66 25 3.32 25 4 25 C3.44 18.42 2.2 12.23 0.62 5.82 C0 3 0 3 0 0 Z " fill="#87ABD8" transform="translate(474,507)"/>
<path d="M0 0 C0.66 0 1.32 0 2 0 C2.66 0.99 3.32 1.98 4 3 C5.11 3.65 5.11 3.65 6.25 4.31 C9.63 6.39 12.59 8.82 15 12 C15 12.99 15 13.98 15 15 C16.32 15.66 17.64 16.32 19 17 C15.35 17 13.94 16.11 11 14 C10.32 12.67 9.65 11.34 9 10 C6.97 8.73 6.97 8.73 5 8 C5 7.01 5 6.02 5 5 C4.36 4.73 3.72 4.46 3.06 4.19 C1 3 1 3 0 0 Z " fill="#C4D2E2" transform="translate(328,1149)"/>
<path d="M0 0 C-3.66 8.24 -10.91 13.78 -18 19 C-18.33 18.01 -18.66 17.02 -19 16 C-18.53 15.6 -18.05 15.2 -17.57 14.79 C-12.76 10.65 -8.27 6.3 -3.88 1.72 C-2 0 -2 0 0 0 Z " fill="#587193" transform="translate(484,1081)"/>
<path d="M0 0 C1.66 3.33 -0.02 6.68 -0.94 10.12 C-1.13 10.88 -1.33 11.63 -1.53 12.41 C-2.01 14.28 -2.51 16.14 -3 18 C-3.99 17.67 -4.98 17.34 -6 17 C-5.38 14.35 -4.76 11.71 -4.12 9.06 C-3.95 8.31 -3.78 7.55 -3.6 6.78 C-3.13 4.83 -2.57 2.91 -2 1 C-1.34 0.67 -0.68 0.34 0 0 Z " fill="#739FD8" transform="translate(479,544)"/>
<path d="M0 0 C0.33 0 0.66 0 1 0 C1.44 2.06 1.44 2.06 1 5 C-1.03 7.7 -3.24 10.05 -6 12 C-7.32 12 -8.64 12 -10 12 C-9.67 11.01 -9.34 10.02 -9 9 C-8.34 9 -7.68 9 -7 9 C-7 8.34 -7 7.68 -7 7 C-5.38 5.29 -3.71 3.63 -2 2 C-1.34 1.34 -0.68 0.68 0 0 Z " fill="#577FB2" transform="translate(529,1032)"/>
<path d="M0 0 C0.33 0.99 0.66 1.98 1 3 C2.32 2.67 3.64 2.34 5 2 C1.87 5.39 -0.57 7.61 -5 9 C-4.67 8.01 -4.34 7.02 -4 6 C-5.98 6.66 -7.96 7.32 -10 8 C-7.76 4.46 -5.89 3.4 -2 2 C-1.34 1.34 -0.68 0.68 0 0 Z " fill="#132F66" transform="translate(191,147)"/>
<path d="M0 0 C0.66 0 1.32 0 2 0 C2 6.27 2 12.54 2 19 C1.67 18.34 1.34 17.68 1 17 C0.34 17 -0.32 17 -1 17 C-0.67 11.39 -0.34 5.78 0 0 Z " fill="#A5BCDB" transform="translate(108,763)"/>
<path d="M0 0 C0.66 0.33 1.32 0.66 2 1 C3.58 6.19 4.29 11.58 4 17 C0.82 12.23 -1.71 6.86 -1 1 C-0.67 0.67 -0.34 0.34 0 0 Z " fill="#85A9D7" transform="translate(800,542)"/>
<path d="M0 0 C0.66 0 1.32 0 2 0 C1.54 4.68 -0.19 6.63 -3.56 9.81 C-4.8 11 -4.8 11 -6.07 12.21 C-6.7 12.8 -7.34 13.39 -8 14 C-8.33 13.01 -8.66 12.02 -9 11 C-8.35 10.37 -7.7 9.75 -7.03 9.1 C-6.2 8.28 -5.36 7.47 -4.5 6.62 C-3.66 5.81 -2.83 5 -1.97 4.16 C0.22 2.24 0.22 2.24 0 0 Z " fill="#587294" transform="translate(495,1066)"/>
<path d="M0 0 C0.33 0 0.66 0 1 0 C1.33 1.98 1.66 3.96 2 6 C2.33 6 2.66 6 3 6 C3 9.96 3 13.92 3 18 C2.34 18 1.68 18 1 18 C-0.59 14.81 -0.1 11.37 -0.06 7.88 C-0.06 7.12 -0.05 6.37 -0.05 5.59 C-0.04 3.73 -0.02 1.86 0 0 Z " fill="#476592" transform="translate(107,286)"/>
<path d="M0 0 C0.66 0 1.32 0 2 0 C1.65 3.15 1.13 4.82 -0.81 7.38 C-1.53 7.91 -2.26 8.45 -3 9 C-5.14 8.6 -5.14 8.6 -7 8 C-5.88 6.66 -4.76 5.33 -3.62 4 C-2.69 2.89 -2.69 2.89 -1.73 1.75 C-1.16 1.17 -0.59 0.6 0 0 Z " fill="#5880B3" transform="translate(507,1054)"/>
<path d="M0 0 C1.21 0.03 1.21 0.03 2.44 0.06 C2.44 0.72 2.44 1.38 2.44 2.06 C-0.3 4.8 -2.33 5.02 -6.14 5.16 C-7.02 5.15 -7.9 5.14 -8.81 5.12 C-9.7 5.12 -10.6 5.11 -11.52 5.1 C-12.19 5.09 -12.87 5.07 -13.56 5.06 C-13.56 4.4 -13.56 3.74 -13.56 3.06 C-12.85 2.93 -12.14 2.8 -11.41 2.66 C-10.49 2.48 -9.57 2.31 -8.62 2.12 C-7.25 1.86 -7.25 1.86 -5.85 1.6 C-3.05 0.94 -2.95 0.07 0 0 Z " fill="#24457C" transform="translate(264.5625,111.9375)"/>
<path d="M0 0 C0.78 0.08 1.55 0.16 2.35 0.24 C4.38 0.69 4.38 0.69 6.38 2.69 C1.43 2.69 -3.52 2.69 -8.62 2.69 C-8.62 2.03 -8.62 1.37 -8.62 0.69 C-5.58 -0.24 -3.16 -0.35 0 0 Z " fill="#E7EAEB" transform="translate(374.625,1171.3125)"/>
<path d="M0 0 C4.29 1.32 8.58 2.64 13 4 C12.67 4.66 12.34 5.32 12 6 C10.39 5.74 8.79 5.47 7.19 5.19 C6.29 5.04 5.4 4.89 4.48 4.73 C1.82 3.95 0.74 3.11 -1 1 C-0.67 0.67 -0.34 0.34 0 0 Z " fill="#85A9D7" transform="translate(851,606)"/>
<path d="M0 0 C0.99 0.33 1.98 0.66 3 1 C2.25 5.75 2.25 5.75 0 8 C-1.32 8 -2.64 8 -4 8 C-2.67 5.33 -1.33 2.67 0 0 Z " fill="#6289BC" transform="translate(423,1136)"/>
<path d="M0 0 C0.99 0.33 1.98 0.66 3 1 C3 4.63 3 8.26 3 12 C2.01 12 1.02 12 0 12 C0 8.04 0 4.08 0 0 Z " fill="#85A9D7" transform="translate(798,528)"/>
<path d="M0 0 C3.63 0.57 5.26 1.92 7.75 4.56 C8.36 5.2 8.98 5.84 9.61 6.5 C10.07 7 10.53 7.49 11 8 C10.67 8.66 10.34 9.32 10 10 C8.33 8.72 6.66 7.42 5 6.12 C3.61 5.05 3.61 5.05 2.19 3.95 C1.47 3.3 0.74 2.66 0 2 C0 1.34 0 0.68 0 0 Z " fill="#0A1436" transform="translate(1095,157)"/>
<path d="M0 0 C2.93 0.63 5.36 1.59 8 3 C7.67 4.32 7.34 5.64 7 7 C6.05 6.36 5.1 5.72 4.12 5.06 C1.25 3.07 1.25 3.07 -1 2 C-0.67 1.34 -0.34 0.68 0 0 Z " fill="#566281" transform="translate(209,927)"/>
<path d="M0 0 C0.33 0.99 0.66 1.98 1 3 C0.67 3.66 0.34 4.32 0 5 C0.99 4.67 1.98 4.34 3 4 C3.93 7.01 4.04 7.87 3 11 C-0.04 9.48 -0.64 7.02 -2 4 C-2 3.34 -2 2.68 -2 2 C-1.34 2 -0.68 2 0 2 C0 1.34 0 0.68 0 0 Z " fill="#1F305E" transform="translate(129,836)"/>
<path d="M0 0 C-3.3 2.31 -6.6 4.62 -10 7 C-10.66 6.67 -11.32 6.34 -12 6 C-4.43 -2.22 -4.43 -2.22 0 0 Z " fill="#6A9BD9" transform="translate(932,596)"/>
<path d="M0 0 C2 3 2 3 2.5 6.56 C2.66 10.06 2.66 10.06 5 12 C4.01 13.49 4.01 13.49 3 15 C-1.46 7.63 -1.46 7.63 -0.75 3 C-0.5 2.01 -0.26 1.02 0 0 Z " fill="#5F73A1" transform="translate(1152,226)"/>
<path d="M0 0 C3.92 1.66 6.9 4.11 10 7 C10.68 9.16 10.68 9.16 11 11 C6.86 7.62 3.19 4.33 0 0 Z " fill="#85A9D7" transform="translate(450,471)"/>
<path d="M0 0 C0 0.99 0 1.98 0 3 C-1.98 3.99 -1.98 3.99 -4 5 C-3 2 -3 2 0 0 Z " fill="#E7EAEB" transform="translate(1068,929)"/>
<path d="M0 0 C2.64 0 5.28 0 8 0 C8 0.33 8 0.66 8 1 C5.12 1.62 5.12 1.62 2 2 C1.34 1.34 0.68 0.68 0 0 Z " fill="#E7EAEB" transform="translate(275,955)"/>
<path d="M0 0 C0 0.99 0 1.98 0 3 C-1.32 3.33 -2.64 3.66 -4 4 C-2.68 2.68 -1.36 1.36 0 0 Z " fill="#E7EAEB" transform="translate(1091,914)"/>
<path d="M0 0 C0 0.99 0 1.98 0 3 C-0.99 2.67 -1.98 2.34 -3 2 C-2.01 1.34 -1.02 0.68 0 0 Z " fill="#D6DFE7" transform="translate(400,1165)"/>
<path d="M0 0 C1.98 0 3.96 0 6 0 C6 0.33 6 0.66 6 1 C4.02 1 2.04 1 0 1 C0 0.67 0 0.34 0 0 Z " fill="#E7EAEB" transform="translate(1017,950)"/>
<path d="M0 0 C1.98 0 3.96 0 6 0 C6 0.33 6 0.66 6 1 C4.02 1 2.04 1 0 1 C0 0.67 0 0.34 0 0 Z " fill="#E7EAEB" transform="translate(1033,945)"/>
<path d="M0 0 C0.33 0 0.66 0 1 0 C1 1.98 1 3.96 1 6 C0.67 6 0.34 6 0 6 C0 4.02 0 2.04 0 0 Z " fill="#D6DFE7" transform="translate(1160,815)"/>
<path d="M0 0 C1.65 0 3.3 0 5 0 C5 0.33 5 0.66 5 1 C3.35 1 1.7 1 0 1 C0 0.67 0 0.34 0 0 Z " fill="#000002" transform="translate(996,957)"/>
<path d="M0 0 C0.33 0 0.66 0 1 0 C1 1.65 1 3.3 1 5 C0.67 5 0.34 5 0 5 C0 3.35 0 1.7 0 0 Z " fill="#040918" transform="translate(1170,783)"/>
<path d="M0 0 C0.33 0 0.66 0 1 0 C1 1.65 1 3.3 1 5 C0.67 5 0.34 5 0 5 C0 3.35 0 1.7 0 0 Z " fill="#000002" transform="translate(1167,265)"/>
<path d="M0 0 C0.66 0.66 1.32 1.32 2 2 C1.01 1.67 0.02 1.34 -1 1 C-0.67 0.67 -0.34 0.34 0 0 Z " fill="#000002" transform="translate(272,954)"/>
<path d="M0 0 C0.99 0.33 1.98 0.66 3 1 C2.01 1.33 1.02 1.66 0 2 C0 1.34 0 0.68 0 0 Z " fill="#E7EAEB" transform="translate(1054,937)"/>
<path d="M0 0 C0.99 0.49 0.99 0.49 2 1 C1.01 1.49 1.01 1.49 0 2 C0 1.34 0 0.68 0 0 Z " fill="#E7EAEB" transform="translate(389,1170)"/>
<path d="M0 0 C3 1 3 1 3 1 Z " fill="#000002" transform="translate(1006,955)"/>
<path d="M0 0 C0.66 0.66 1.32 1.32 2 2 C1.34 2 0.68 2 0 2 C0 1.34 0 0.68 0 0 Z " fill="#E7EAEB" transform="translate(250,947)"/>
<path d="M0 0 C3 1 3 1 3 1 Z " fill="#000002" transform="translate(1033,947)"/>
<path d="M0 0 C3 1 3 1 3 1 Z " fill="#000002" transform="translate(244,947)"/>
<path d="M0 0 C3 1 3 1 3 1 Z " fill="#E7EAEB" transform="translate(241,945)"/>
<path d="M0 0 C3 1 3 1 3 1 Z " fill="#E7EAEB" transform="translate(1044,942)"/>
<path d="" fill="#000002" transform="translate(0,0)"/>
<path d="" fill="#000002" transform="translate(0,0)"/>
<path d="M0 0 C2 1 2 1 2 1 Z " fill="#000002" transform="translate(386,1172)"/>
<path d="M0 0 C2 1 2 1 2 1 Z " fill="#E7EAEB" transform="translate(381,1172)"/>
<path d="M0 0 C2 1 2 1 2 1 Z " fill="#000002" transform="translate(392,1170)"/>
<path d="" fill="#E7EAEB" transform="translate(0,0)"/>
<path d="M0 0 C2 1 2 1 2 1 Z " fill="#000002" transform="translate(992,957)"/>
<path d="M0 0 C2 1 2 1 2 1 Z " fill="#000002" transform="translate(1024,950)"/>
<path d="M0 0 C2 1 2 1 2 1 Z " fill="#000002" transform="translate(253,949)"/>
<path d="M0 0 C2 1 2 1 2 1 Z " fill="#E7EAEB" transform="translate(191,917)"/>
<path d="M0 0 C2 1 2 1 2 1 Z " fill="#E7EAEB" transform="translate(1097,909)"/>
<path d="" fill="#E7EAEB" transform="translate(0,0)"/>
<path d="" fill="#E7EAEB" transform="translate(0,0)"/>
<path d="" fill="#000002" transform="translate(0,0)"/>
<path d="" fill="#000002" transform="translate(0,0)"/>
<path d="" fill="#E7EAEB" transform="translate(0,0)"/>
<path d="" fill="#E7EAEB" transform="translate(0,0)"/>
<path d="M0 0 C2 1 2 1 2 1 Z " fill="#162D73" transform="translate(130,215)"/>
<path d="" fill="#000002" transform="translate(0,0)"/>
<path d="" fill="#000002" transform="translate(0,0)"/>
<path d="" fill="#000002" transform="translate(0,0)"/>
<path d="" fill="#E7EAEB" transform="translate(0,0)"/>
<path d="" fill="#E7EAEB" transform="translate(0,0)"/>
<path d="" fill="#000002" transform="translate(0,0)"/>
<path d="" fill="#000002" transform="translate(0,0)"/>
<path d="" fill="#E7EAEB" transform="translate(0,0)"/>
<path d="" fill="#1F73E0" transform="translate(0,0)"/>
<path d="" fill="#E7EAEB" transform="translate(0,0)"/>
<path d="" fill="#000002" transform="translate(0,0)"/>
<path d="" fill="#E7EAEB" transform="translate(0,0)"/>
<path d="" fill="#000002" transform="translate(0,0)"/>
<path d="" fill="#000002" transform="translate(0,0)"/>
<path d="" fill="#000002" transform="translate(0,0)"/>
<path d="" fill="#000002" transform="translate(0,0)"/>
<path d="" fill="#000002" transform="translate(0,0)"/>
<path d="" fill="#000002" transform="translate(0,0)"/>
<path d="" fill="#162D73" transform="translate(0,0)"/>
<path d="" fill="#000002" transform="translate(0,0)"/>
<path d="" fill="#000002" transform="translate(0,0)"/>
<path d="" fill="#000002" transform="translate(0,0)"/>
<path d="" fill="#E7EAEB" transform="translate(0,0)"/>
<path d="" fill="#85A9D7" transform="translate(0,0)"/>
<path d="" fill="#000002" transform="translate(0,0)"/>
<path d="" fill="#162D73" transform="translate(0,0)"/>
<path d="" fill="#000002" transform="translate(0,0)"/>
<path d="" fill="#000002" transform="translate(0,0)"/>
<path d="" fill="#E7EAEB" transform="translate(0,0)"/>
<path d="" fill="#000002" transform="translate(0,0)"/>
<path d="" fill="#000002" transform="translate(0,0)"/>
<path d="" fill="#000002" transform="translate(0,0)"/>
<path d="" fill="#000002" transform="translate(0,0)"/>
<path d="" fill="#000002" transform="translate(0,0)"/>
</svg>
